<svg width="73" height="29" fill="none" xmlns="http://www.w3.org/2000/svg"><path d="M8.215 29c.706-2.674 1.409-5.346 2.12-8.042-.313.15-.606.28-.904.394-1.12.425-2.275.665-3.478.636-1.265-.032-2.452-.34-3.507-1.062-1.22-.833-1.963-1.99-2.286-3.424-.26-1.16-.19-2.315.114-3.457.529-1.98 1.608-3.628 3.093-5.016 1.33-1.246 2.862-2.141 4.622-2.63 1.28-.353 2.577-.45 3.885-.17 1.38.296 2.54.961 3.41 2.087.675.874 1.033 1.877 1.147 2.968.108 1.02-.03 2.015-.3 2.998-.362 1.333-.712 2.67-1.066 4.004-.763 2.893-1.507 5.793-2.297 8.68-.312 1.135-1.115 1.8-2.278 2.013-.013.003-.024.011-.038.018C9.71 29 8.961 29 8.215 29zM4.19 15.061c.004.076.004.197.02.315.141 1.18.752 1.998 1.881 2.403.627.224 1.276.237 1.921.1 1.555-.33 2.735-1.202 3.581-2.532.49-.773.753-1.619.699-2.546-.072-1.216-.838-2.19-2-2.535a3.698 3.698 0 00-1.926-.04c-1.415.331-2.52 1.128-3.341 2.315-.515.741-.815 1.563-.835 2.52zM52.264.002c-.354 1.34-.706 2.679-1.06 4.015-.03.025-.065.014-.098.014-.645 0-1.292.004-1.937 0-.455-.002-.862-.139-1.171-.488-.377-.424-.444-.927-.314-1.458.173-.697.365-1.39.549-2.085 1.343 0 2.687 0 4.03.002zM72.15 6.136c-.088.233-.137.477-.2.72-.163.606-.32 1.215-.48 1.824-.013.052-.033.08-.096.079-.853-.003-1.708-.003-2.561-.003-.014 0-.027-.004-.05-.006l.706-2.679h2.68v.065zM23.172 21.992a6.272 6.272 0 01-2.862-.756c-1.58-.863-2.508-2.202-2.841-3.96-.207-1.086-.126-2.163.159-3.227.515-1.925 1.551-3.54 2.978-4.913 1.254-1.205 2.7-2.094 4.36-2.627a8.702 8.702 0 012.963-.436c1.312.042 2.535.383 3.607 1.166 1.212.887 1.917 2.097 2.181 3.566.245 1.352.068 2.669-.394 3.952-.67 1.865-1.81 3.402-3.314 4.674-1.28 1.081-2.725 1.858-4.353 2.28-.72.187-1.454.28-2.484.282zm-1.628-6.933c.005.077.005.197.02.316.141 1.18.75 2 1.877 2.403.627.226 1.276.24 1.921.103 1.559-.331 2.741-1.205 3.588-2.54.488-.77.748-1.614.694-2.537-.072-1.216-.835-2.19-1.997-2.537a3.696 3.696 0 00-1.926-.04c-1.416.331-2.52 1.128-3.344 2.313-.513.741-.813 1.563-.833 2.52zm26.382 6.934c-.01-.072.04-.097.072-.128l5.764-5.695c.697-.687 1.39-1.375 2.087-2.06.056-.056.07-.096.032-.172-1.255-2.582-2.506-5.167-3.76-7.75l-.043-.097c.018-.027.038-.02.056-.02.694 0 1.389-.007 2.083.002.647.009 1.252.179 1.787.557.385.274.683.623.882 1.05.506 1.09 1.044 2.164 1.563 3.246l.215.44c.273-.286.526-.56.788-.821.923-.918 1.857-1.825 2.773-2.752.768-.775 1.652-1.337 2.716-1.601.316-.079.636-.124.963-.124.672-.002 1.344 0 2.016 0H68c-.195.197-.376.381-.56.562l-7.414 7.323c-.056.056-.065.099-.03.173 1.248 2.568 2.493 5.141 3.74 7.712.023.045.06.087.025.15a.752.752 0 01-.074.005c-.672 0-1.344.01-2.015-.003-.863-.017-1.624-.293-2.226-.936a2.903 2.903 0 01-.493-.754c-.564-1.178-1.133-2.352-1.7-3.527-.004-.01-.013-.018-.02-.03-.038.003-.054.034-.076.056-1.133 1.12-2.275 2.23-3.397 3.362-.508.513-1.053.967-1.7 1.294a4.86 4.86 0 01-2.28.542c-.618-.013-1.233-.004-1.854-.004zm-15.016-.004c.084-.316.162-.62.243-.927l.653-2.473c.22-.83.437-1.664.657-2.494.373-1.422.75-2.844 1.126-4.266.161-.612.311-1.228.488-1.834.278-.95.815-1.745 1.539-2.412.77-.712 1.661-1.2 2.698-1.407a4.2 4.2 0 01.62-.076c1.398-.058 2.795-.01 4.195-.024.006 0 .013.002.038.009-.354 1.337-.706 2.673-1.057 4.008-.04.023-.083.011-.121.011h-1.77c-1.123.005-1.916.556-2.47 1.498-.176.3-.237.64-.324.972a3272.809 3272.809 0 00-2.286 8.673c-.065.249-.133.495-.2.744-1.341-.002-2.676-.002-4.028-.002zM46.634 6.073c.721 0 1.431-.02 2.141.005.93.031 1.547.797 1.413 1.717-.065.455-.213.892-.33 1.333-.971 3.692-1.947 7.385-2.921 11.078l-.448 1.695c-.007.03-.018.056-.025.085h-4.029c1.4-5.305 2.797-10.606 4.2-15.913z" fill="#353535"/></svg>